<?xml version="1.0" standalone="no"?>
<!DOCTYPE svg PUBLIC "-//W3C//DTD SVG 20010904//EN"
 "http://www.w3.org/TR/2001/REC-SVG-20010904/DTD/svg10.dtd">
<svg version="1.0" xmlns="http://www.w3.org/2000/svg"
 width="242.000000pt" height="242.000000pt" viewBox="0 0 242.000000 242.000000"
 preserveAspectRatio="xMidYMid meet">

<g transform="translate(0.000000,242.000000) scale(0.100000,-0.100000)"
fill="#000000" stroke="none">
<path d="M1205 1935 c0 -48 2 -55 20 -55 18 0 20 7 20 55 0 48 -2 55 -20 55
-18 0 -20 -7 -20 -55z"/>
<path d="M1273 1977 c3 -8 1 -20 -3 -28 -5 -8 -4 -19 2 -26 5 -7 7 -20 4 -29
-4 -10 -1 -14 6 -11 7 2 13 21 14 43 1 46 -4 64 -18 64 -6 0 -8 -6 -5 -13z"/>
<path d="M1352 1951 c-1 -20 -4 -45 -5 -56 -1 -11 5 -21 14 -23 13 -2 15 3 12
23 -4 18 -1 25 11 25 9 0 16 -8 16 -18 0 -10 5 -23 12 -30 15 -15 38 -16 38
-1 0 5 -4 8 -9 5 -5 -3 -11 6 -14 19 -2 14 0 28 4 31 14 8 11 41 -4 47 -9 3
-13 -3 -13 -16 1 -13 -6 -23 -18 -25 -15 -3 -18 1 -14 21 3 18 0 27 -11 30
-12 3 -17 -5 -19 -32z"/>
<path d="M1060 1950 c0 -5 5 -10 10 -10 6 0 10 5 10 10 0 6 -4 10 -10 10 -5 0
-10 -4 -10 -10z"/>
<path d="M1008 1942 c-14 -3 -15 -6 -1 -33 8 -17 16 -41 17 -53 1 -17 6 -22
19 -18 9 2 17 5 17 6 -1 0 -8 24 -18 51 -12 36 -22 49 -34 47z"/>
<path d="M1511 1914 c-7 -19 -18 -39 -25 -46 -10 -11 -5 -18 23 -37 31 -20 33
-20 18 -3 -18 19 -18 21 2 61 25 48 25 47 8 54 -9 3 -18 -7 -26 -29z"/>
<path d="M910 1892 c0 -4 5 -13 12 -20 8 -8 8 -15 0 -24 -8 -11 -4 -17 19 -27
32 -14 59 -9 59 11 0 10 -2 10 -8 1 -5 -8 -13 -6 -29 7 -12 9 -19 20 -16 24 7
7 -16 36 -28 36 -5 0 -9 -4 -9 -8z"/>
<path d="M1075 1890 c-3 -5 -2 -10 4 -10 5 0 13 5 16 10 3 6 2 10 -4 10 -5 0
-13 -4 -16 -10z"/>
<path d="M1639 1837 c-17 -65 -17 -72 0 -72 8 0 16 11 18 24 2 14 9 37 17 51
11 24 11 28 -4 38 -14 9 -19 3 -31 -41z"/>
<path d="M863 1869 c-9 -9 -5 -22 15 -53 14 -22 27 -42 28 -44 0 -1 8 0 17 4
11 4 13 9 6 17 -6 7 -20 29 -32 50 -17 28 -26 34 -34 26z"/>
<path d="M1090 1860 c-9 -6 -10 -10 -3 -10 6 0 15 5 18 10 8 12 4 12 -15 0z"/>
<path d="M1540 1850 c0 -5 4 -10 9 -10 6 0 13 5 16 10 3 6 -1 10 -9 10 -9 0
-16 -4 -16 -10z"/>
<path d="M1700 1832 c0 -10 -5 -23 -11 -29 -14 -14 -20 -71 -8 -79 5 -2 32 11
61 31 29 19 49 35 45 35 -5 0 -24 -11 -44 -25 -20 -13 -39 -23 -41 -21 -2 2 5
22 16 44 18 38 18 40 0 51 -15 9 -18 8 -18 -7z"/>
<path d="M787 1813 c-3 -2 11 -19 31 -37 37 -35 39 -66 4 -66 -21 0 -62 39
-62 60 0 9 -6 8 -20 -5 -20 -18 -20 -19 -3 -29 10 -5 24 -18 31 -28 18 -25 54
-23 80 5 l21 22 -39 41 c-21 23 -41 40 -43 37z"/>
<path d="M1372 1735 c-54 -48 -107 -141 -118 -205 -6 -33 -4 -31 20 17 33 63
95 134 141 163 37 23 44 40 21 59 -11 9 -24 2 -64 -34z"/>
<path d="M1785 1696 c-40 -30 -41 -31 -25 -58 8 -16 19 -28 24 -28 5 0 3 7 -4
15 -10 12 -10 18 0 30 7 9 19 14 26 11 8 -3 11 0 8 8 -3 7 5 17 17 22 17 8 19
12 8 21 -11 8 -24 3 -54 -21z"/>
<path d="M662 1667 c-6 -9 4 -21 38 -43 45 -29 48 -30 59 -12 9 14 8 18 -2 18
-7 0 -29 11 -49 25 -27 18 -38 21 -46 12z"/>
<path d="M1027 1674 c-10 -3 -36 -16 -58 -28 l-40 -23 45 -6 c24 -4 62 -16 83
-28 86 -50 156 -80 169 -75 15 6 18 24 6 42 -8 13 -98 54 -118 54 -7 0 -15 4
-18 8 -8 13 57 1 82 -16 12 -8 22 -11 22 -7 0 4 7 2 15 -5 9 -7 19 -10 22 -6
17 16 -43 72 -87 82 -41 9 -104 13 -123 8z"/>
<path d="M1855 1670 c-3 -5 -1 -10 4 -10 6 0 11 5 11 10 0 6 -2 10 -4 10 -3 0
-8 -4 -11 -10z"/>
<path d="M1800 1630 c0 -5 7 -10 16 -10 8 0 12 5 9 10 -3 6 -10 10 -16 10 -5
0 -9 -4 -9 -10z"/>
<path d="M1378 1623 c-31 -5 -82 -49 -73 -63 4 -6 16 -5 33 4 15 7 41 16 57
19 22 5 18 1 -15 -13 -65 -29 -75 -35 -78 -54 -6 -27 35 -19 116 25 42 22 89
41 104 42 16 1 28 3 28 5 0 2 -19 12 -42 22 -41 19 -72 22 -130 13z"/>
<path d="M1895 1600 c-3 -5 -23 -15 -44 -21 -29 -8 -37 -16 -34 -28 4 -16 8
-16 51 5 26 12 50 20 54 18 10 -6 10 -1 2 20 -7 18 -20 21 -29 6z"/>
<path d="M610 1580 c0 -5 -3 -15 -6 -23 -3 -8 2 -17 10 -20 10 -4 13 -1 9 8
-4 13 1 13 37 0 23 -8 46 -12 51 -9 15 9 10 24 -8 24 -10 1 -35 7 -55 14 -21
8 -38 10 -38 6z"/>
<path d="M1922 1544 c-15 -17 -32 -18 -32 -3 0 7 -9 0 -20 -14 -11 -14 -20
-32 -20 -40 0 -20 17 -31 25 -17 3 5 1 10 -4 10 -6 0 -3 8 7 18 9 10 25 16 34
14 10 -2 20 3 24 12 9 23 1 36 -14 20z"/>
<path d="M643 1508 c-1 -13 3 -18 11 -15 8 3 19 0 25 -6 6 -6 11 -7 11 -1 0 5
-11 16 -23 25 -22 16 -23 16 -24 -3z"/>
<path d="M1229 1478 c-31 -10 -52 -47 -51 -88 1 -34 38 -104 71 -134 25 -23
40 -13 83 53 48 76 34 150 -34 174 -16 6 -18 -2 -18 -73 0 -108 -18 -114 -22
-7 l-3 84 -26 -9z"/>
<path d="M1121 1460 c-54 -13 -76 -29 -137 -98 l-58 -65 49 8 c84 12 170 66
188 118 9 24 -2 21 -54 -13 -24 -16 -55 -37 -69 -46 -14 -9 -5 3 20 26 25 24
60 49 78 56 17 8 32 16 32 19 0 6 -5 5 -49 -5z"/>
<path d="M1375 1460 c3 -6 12 -10 19 -10 17 0 119 -81 111 -88 -3 -3 -15 4
-28 15 -24 23 -88 63 -99 63 -4 0 -5 -8 -1 -17 18 -52 104 -106 188 -118 l49
-8 -58 66 c-32 36 -73 72 -90 80 -41 19 -99 30 -91 17z"/>
<path d="M1940 1445 c-13 -14 -34 -25 -48 -25 -18 0 -23 -4 -18 -16 3 -9 6
-17 6 -20 0 -7 51 16 75 33 14 10 25 23 25 30 0 23 -17 22 -40 -2z"/>
<path d="M598 1453 c6 -2 18 -2 25 0 6 3 1 5 -13 5 -14 0 -19 -2 -12 -5z"/>
<path d="M640 1442 c0 -11 -70 -33 -82 -26 -4 3 -8 -5 -8 -18 0 -17 6 -24 20
-25 11 -1 18 2 15 6 -2 5 15 14 39 21 28 8 46 19 49 31 4 14 0 19 -14 19 -10
0 -19 -4 -19 -8z"/>
<path d="M645 1360 c-3 -5 -1 -10 4 -10 6 0 11 5 11 10 0 6 -2 10 -4 10 -3 0
-8 -4 -11 -10z"/>
<path d="M1098 1334 c-42 -27 -48 -52 -27 -115 21 -62 30 -64 82 -19 56 50 64
71 39 108 -10 15 -21 33 -24 41 -2 8 -12 -8 -22 -35 -27 -71 -37 -76 -22 -10
7 31 13 56 12 55 0 0 -18 -11 -38 -25z"/>
<path d="M1371 1350 c-1 -8 -10 -26 -21 -40 -27 -35 -25 -44 17 -90 60 -67 70
-69 94 -15 29 66 23 102 -24 132 l-39 24 8 -23 c15 -49 22 -88 13 -82 -5 3 -9
11 -10 17 -1 20 -37 93 -38 77z"/>
<path d="M750 1289 c0 -5 4 -8 9 -4 18 10 23 -16 7 -34 -23 -25 -20 -31 12
-30 16 1 20 3 10 6 -16 4 -16 6 -2 28 9 13 13 29 9 35 -8 13 -45 13 -45 -1z"/>
<path d="M824 1286 c-11 -28 0 -61 21 -61 16 0 20 7 20 35 0 25 -5 36 -18 38
-9 2 -20 -3 -23 -12z m36 -26 c0 -10 -5 -22 -10 -25 -13 -8 -24 20 -16 41 8
20 26 9 26 -16z"/>
<path d="M998 1293 c-22 -6 -28 -25 -37 -110 -8 -79 -3 -85 39 -56 61 40 68
52 57 88 -5 19 -14 32 -18 29 -5 -3 -6 9 -3 26 7 31 2 34 -38 23z"/>
<path d="M1504 1270 c3 -17 2 -29 -3 -26 -4 3 -13 -10 -18 -29 -11 -36 -4 -48
57 -88 42 -29 47 -23 39 56 -9 89 -14 103 -42 111 -36 10 -40 7 -33 -24z"/>
<path d="M1675 1290 c-3 -6 1 -7 9 -4 21 8 21 -19 1 -36 -23 -19 -18 -30 13
-29 16 1 20 3 10 6 -16 4 -16 6 -2 28 9 13 13 29 9 35 -8 13 -32 13 -40 0z"/>
<path d="M1745 1290 c-3 -6 1 -7 9 -4 21 8 21 -19 1 -36 -23 -19 -18 -30 13
-29 16 1 20 3 10 6 -16 4 -16 6 -2 28 9 13 13 29 9 35 -8 13 -32 13 -40 0z"/>
<path d="M559 1243 c-12 -33 -5 -80 17 -111 21 -31 31 -27 27 11 l-3 32 11
-28 c14 -35 29 -26 29 17 0 34 -35 96 -57 104 -7 2 -18 -9 -24 -25z"/>
<path d="M1932 1247 c-25 -26 -39 -86 -27 -114 6 -16 9 -14 22 12 l14 30 -5
-33 c-8 -45 13 -38 38 12 15 30 17 46 10 74 -11 44 -24 49 -52 19z"/>
<path d="M1202 1230 c-12 -16 -22 -39 -22 -50 0 -32 36 -95 64 -114 24 -15 28
-15 52 0 29 20 64 83 64 116 -1 13 -12 36 -25 53 l-25 30 5 -55 5 -55 -11 43
c-9 36 -13 41 -25 31 -11 -9 -17 -9 -29 1 -12 10 -15 8 -19 -12 -13 -57 -15
-59 -11 -10 2 28 3 52 1 52 -1 0 -12 -13 -24 -30z"/>
<path d="M1144 1169 c-6 -8 -14 -35 -17 -61 -5 -37 -2 -52 16 -79 30 -44 40
-45 62 -6 18 34 18 34 -9 73 -24 36 -26 37 -28 14 0 -14 -4 -3 -7 24 -5 39 -8
46 -17 35z"/>
<path d="M1379 1135 c-1 -28 -4 -39 -6 -26 -4 22 -6 21 -30 -14 -26 -38 -26
-38 -8 -72 22 -39 32 -38 62 6 18 27 21 42 16 79 -3 26 -12 54 -19 62 -12 12
-14 7 -15 -35z"/>
<path d="M1065 1157 c-2 -7 -9 -32 -14 -57 l-10 -45 2 43 c3 48 -1 51 -31 19
-19 -20 -21 -31 -16 -70 4 -26 12 -55 19 -64 12 -17 14 -17 36 2 24 22 53 82
63 130 5 25 2 32 -19 42 -20 9 -27 9 -30 0z"/>
<path d="M1450 1155 c-7 -8 -17 -12 -22 -9 -30 19 27 -130 61 -161 22 -19 24
-19 36 -2 7 9 15 38 19 64 6 47 -1 65 -33 83 -14 7 -16 2 -14 -33 2 -41 2 -41
-10 10 -14 61 -20 69 -37 48z"/>
<path d="M662 1147 c-19 -22 -31 -64 -25 -86 5 -20 6 -20 19 -4 12 17 13 16 7
-4 -8 -33 12 -28 27 6 12 29 6 86 -10 96 -4 3 -12 -1 -18 -8z"/>
<path d="M1850 1135 c-13 -34 -13 -48 2 -80 14 -31 32 -33 25 -2 -6 20 -5 21
7 4 13 -17 14 -17 18 0 6 25 -9 78 -27 93 -12 10 -16 8 -25 -15z"/>
<path d="M545 1083 c8 -33 42 -73 62 -73 11 0 11 4 2 23 -11 20 -11 21 4 8 15
-12 17 -11 17 3 0 24 -45 66 -71 66 -18 0 -20 -4 -14 -27z"/>
<path d="M1935 1085 c-29 -28 -36 -67 -8 -44 15 13 15 12 4 -8 -9 -19 -9 -23
2 -23 20 0 54 40 62 73 6 23 4 27 -14 27 -12 0 -33 -11 -46 -25z"/>
<path d="M1222 1026 c-9 -20 -7 -32 11 -68 12 -23 29 -43 37 -43 8 0 25 20 37
43 18 36 20 48 11 68 -15 33 -32 25 -39 -17 -5 -27 -7 -29 -8 -8 -1 24 -17 49
-31 49 -4 0 -12 -11 -18 -24z"/>
<path d="M1086 1005 c-9 -13 -16 -31 -16 -38 0 -23 21 -77 30 -77 5 0 22 19
38 43 l30 42 -23 27 -23 26 -10 -41 -11 -42 2 43 c2 23 2 42 1 42 -1 0 -9 -11
-18 -25z"/>
<path d="M1394 1001 l-22 -26 30 -42 c16 -24 33 -43 38 -43 9 0 30 55 30 79 0
9 -9 27 -19 40 l-19 25 4 -50 4 -49 -13 46 -12 46 -21 -26z"/>
<path d="M640 1005 c0 -10 52 -109 72 -137 11 -16 24 -28 29 -28 6 0 -3 19
-19 43 -16 23 -39 61 -51 85 -19 38 -31 52 -31 37z"/>
<path d="M1869 968 c-12 -23 -35 -62 -51 -85 -16 -24 -25 -43 -19 -43 18 0
109 155 97 167 -2 3 -15 -15 -27 -39z"/>
<path d="M1195 970 c-4 -7 -14 -31 -22 -54 l-13 -41 5 40 6 40 -20 -30 c-23
-33 -27 -75 -10 -106 10 -19 12 -20 29 -4 10 9 28 39 39 66 19 44 20 52 8 75
-10 20 -16 23 -22 14z"/>
<path d="M1322 955 c-10 -22 -9 -34 9 -75 11 -27 29 -56 40 -66 18 -16 19 -15
29 10 15 40 12 68 -11 101 l-20 30 5 -40 6 -40 -15 44 c-20 59 -29 67 -43 36z"/>
<path d="M1221 875 c-11 -32 -10 -39 11 -78 13 -23 30 -42 38 -42 8 0 25 21
38 47 22 44 23 48 7 78 -20 39 -35 30 -37 -23 l-1 -42 -4 40 c-4 35 -16 54
-33 55 -4 0 -12 -16 -19 -35z"/>
<path d="M752 814 c4 -21 22 -23 26 -1 2 10 -3 17 -13 17 -10 0 -15 -6 -13
-16z"/>
<path d="M1756 821 c-7 -11 18 -33 27 -24 4 3 7 12 7 20 0 15 -26 18 -34 4z"/>
<path d="M1693 771 c6 -29 5 -31 -14 -20 -11 6 -23 8 -27 5 -6 -7 -7 -7 42
-35 44 -25 55 -22 32 11 -9 12 -16 30 -16 40 0 9 -5 20 -12 24 -8 5 -9 -2 -5
-25z"/>
<path d="M811 754 c-25 -32 -26 -38 -5 -58 23 -23 40 -19 19 4 -17 19 -17 21
0 40 22 25 41 25 54 3 9 -15 10 -15 11 -2 1 43 -49 51 -79 13z"/>
<path d="M1596 679 l16 -32 -36 22 c-20 12 -40 20 -45 16 -11 -6 27 -95 41
-95 11 0 10 7 -7 40 -18 36 -14 37 24 9 42 -31 55 -17 31 32 -11 21 -25 39
-30 39 -6 0 -3 -14 6 -31z"/>
<path d="M926 678 c-9 -12 -16 -28 -16 -34 0 -15 33 -44 52 -44 20 0 48 32 48
56 0 45 -58 60 -84 22z m59 1 c13 -20 -4 -59 -26 -59 -25 0 -34 22 -19 49 12
23 35 28 45 10z"/>
<path d="M1073 605 c-6 -25 -7 -48 -3 -50 9 -6 20 19 20 46 0 10 5 19 10 19 6
0 10 -15 10 -34 0 -48 14 -52 40 -11 24 39 34 45 26 15 -3 -11 -9 -29 -12 -40
-3 -11 -1 -20 5 -20 5 0 12 15 16 33 4 17 9 40 11 50 8 27 -30 21 -46 -8 -19
-35 -30 -31 -30 10 0 27 -4 35 -18 35 -14 0 -21 -12 -29 -45z"/>
<path d="M1410 633 c0 -10 -3 -35 -6 -55 -5 -25 -3 -38 5 -38 6 0 11 6 11 14
0 18 35 27 49 13 23 -23 19 0 -7 41 -28 43 -52 55 -52 25z m34 -28 c3 -9 0
-15 -9 -15 -8 0 -15 7 -15 15 0 8 4 15 9 15 5 0 11 -7 15 -15z"/>
<path d="M1270 581 c0 -28 5 -51 10 -51 6 0 10 8 10 19 0 10 9 21 21 24 32 9
22 51 -13 55 -27 3 -28 2 -28 -47z m40 13 c0 -16 -16 -19 -25 -4 -8 13 4 32
16 25 5 -4 9 -13 9 -21z"/>
</g>
</svg>
